<mxfile host="app.diagrams.net" agent="Mozilla/5.0 (X11; Linux x86_64) AppleWebKit/537.36 (KHTML, like Gecko) Chrome/128.0.0.0 Safari/537.36" version="24.7.14">
  <diagram name="Page-1" id="2IrtAHJxAv_GJQ9J6KhI">
    <mxGraphModel dx="1364" dy="793" grid="1" gridSize="10" guides="1" tooltips="1" connect="1" arrows="1" fold="1" page="1" pageScale="1" pageWidth="827" pageHeight="1169" math="0" shadow="0">
      <root>
        <mxCell id="0" />
        <mxCell id="1" parent="0" />
        <mxCell id="1ULK59Ztg3mBwUXZoHgi-18" value="" style="whiteSpace=wrap;html=1;aspect=fixed;" parent="1" vertex="1">
          <mxGeometry x="70" y="200" width="730" height="730" as="geometry" />
        </mxCell>
        <mxCell id="1ULK59Ztg3mBwUXZoHgi-35" style="edgeStyle=orthogonalEdgeStyle;rounded=0;orthogonalLoop=1;jettySize=auto;html=1;" parent="1" edge="1">
          <mxGeometry relative="1" as="geometry">
            <mxPoint x="450" y="290" as="sourcePoint" />
            <mxPoint x="260" y="290" as="targetPoint" />
          </mxGeometry>
        </mxCell>
        <mxCell id="1ULK59Ztg3mBwUXZoHgi-37" value="Authentication" style="edgeLabel;html=1;align=center;verticalAlign=middle;resizable=0;points=[];" parent="1ULK59Ztg3mBwUXZoHgi-35" vertex="1" connectable="0">
          <mxGeometry x="0.1111" y="-1" relative="1" as="geometry">
            <mxPoint x="4" y="1" as="offset" />
          </mxGeometry>
        </mxCell>
        <mxCell id="1ULK59Ztg3mBwUXZoHgi-28" value="" style="rounded=0;whiteSpace=wrap;html=1;" parent="1" vertex="1">
          <mxGeometry x="450" y="249" width="230" height="131" as="geometry" />
        </mxCell>
        <mxCell id="1ULK59Ztg3mBwUXZoHgi-8" style="edgeStyle=orthogonalEdgeStyle;rounded=0;orthogonalLoop=1;jettySize=auto;html=1;" parent="1" source="1ULK59Ztg3mBwUXZoHgi-4" target="1ULK59Ztg3mBwUXZoHgi-7" edge="1">
          <mxGeometry relative="1" as="geometry" />
        </mxCell>
        <mxCell id="1ULK59Ztg3mBwUXZoHgi-4" value="Users" style="image;aspect=fixed;perimeter=ellipsePerimeter;html=1;align=center;shadow=0;dashed=0;spacingTop=3;image=img/lib/active_directory/user_accounts.svg;" parent="1" vertex="1">
          <mxGeometry x="90" y="87.75" width="50" height="48.5" as="geometry" />
        </mxCell>
        <mxCell id="1ULK59Ztg3mBwUXZoHgi-20" style="edgeStyle=orthogonalEdgeStyle;rounded=0;orthogonalLoop=1;jettySize=auto;html=1;" parent="1" source="1ULK59Ztg3mBwUXZoHgi-7" target="1ULK59Ztg3mBwUXZoHgi-13" edge="1">
          <mxGeometry relative="1" as="geometry" />
        </mxCell>
        <mxCell id="1ULK59Ztg3mBwUXZoHgi-7" value="Web Browser" style="shape=mxgraph.cisco.computers_and_peripherals.web_browser;html=1;pointerEvents=1;dashed=0;fillColor=#036897;strokeColor=#ffffff;strokeWidth=2;verticalLabelPosition=bottom;verticalAlign=top;align=center;outlineConnect=0;" parent="1" vertex="1">
          <mxGeometry x="210" y="80" width="62" height="64" as="geometry" />
        </mxCell>
        <mxCell id="1ULK59Ztg3mBwUXZoHgi-30" style="edgeStyle=orthogonalEdgeStyle;rounded=0;orthogonalLoop=1;jettySize=auto;html=1;entryX=0.5;entryY=0;entryDx=0;entryDy=0;" parent="1" source="1ULK59Ztg3mBwUXZoHgi-13" target="1ULK59Ztg3mBwUXZoHgi-28" edge="1">
          <mxGeometry relative="1" as="geometry" />
        </mxCell>
        <mxCell id="1ULK59Ztg3mBwUXZoHgi-13" value="DNS Service" style="image;aspect=fixed;html=1;points=[];align=center;fontSize=12;image=img/lib/azure2/networking/DNS_Zones.svg;" parent="1" vertex="1">
          <mxGeometry x="330" y="81.75" width="62.25" height="62.25" as="geometry" />
        </mxCell>
        <mxCell id="1ULK59Ztg3mBwUXZoHgi-17" value="Azure SQL DB&lt;div&gt;(&lt;b&gt;EscalationDirectory&lt;/b&gt;)&lt;/div&gt;" style="image;aspect=fixed;html=1;points=[];align=center;fontSize=12;image=img/lib/azure2/databases/SQL_Database.svg;" parent="1" vertex="1">
          <mxGeometry x="520" y="700" width="41.5" height="55.33" as="geometry" />
        </mxCell>
        <mxCell id="1ULK59Ztg3mBwUXZoHgi-21" value="&lt;b&gt;Web App (UI) Sed&lt;/b&gt;" style="image;aspect=fixed;html=1;points=[];align=center;fontSize=12;image=img/lib/azure2/app_services/App_Services.svg;" parent="1" vertex="1">
          <mxGeometry x="550" y="260" width="40" height="40" as="geometry" />
        </mxCell>
        <mxCell id="1ULK59Ztg3mBwUXZoHgi-15" value="App Service Plan" style="image;aspect=fixed;html=1;points=[];align=center;fontSize=12;image=img/lib/azure2/app_services/App_Service_Plans.svg;" parent="1" vertex="1">
          <mxGeometry x="640" y="350" width="30" height="30" as="geometry" />
        </mxCell>
        <mxCell id="1ULK59Ztg3mBwUXZoHgi-40" style="edgeStyle=orthogonalEdgeStyle;rounded=0;orthogonalLoop=1;jettySize=auto;html=1;entryX=0;entryY=0.5;entryDx=0;entryDy=0;" parent="1" source="1ULK59Ztg3mBwUXZoHgi-31" target="1ULK59Ztg3mBwUXZoHgi-28" edge="1">
          <mxGeometry relative="1" as="geometry" />
        </mxCell>
        <mxCell id="1ULK59Ztg3mBwUXZoHgi-41" value="Valid Okta Session" style="edgeLabel;html=1;align=center;verticalAlign=middle;resizable=0;points=[];" parent="1ULK59Ztg3mBwUXZoHgi-40" vertex="1" connectable="0">
          <mxGeometry y="-2" relative="1" as="geometry">
            <mxPoint y="1" as="offset" />
          </mxGeometry>
        </mxCell>
        <mxCell id="1ULK59Ztg3mBwUXZoHgi-31" value="" style="rounded=0;whiteSpace=wrap;html=1;" parent="1" vertex="1">
          <mxGeometry x="90" y="250" width="180" height="131" as="geometry" />
        </mxCell>
        <mxCell id="1ULK59Ztg3mBwUXZoHgi-33" value="&lt;b&gt;Web App (Okta)&lt;/b&gt;" style="image;aspect=fixed;html=1;points=[];align=center;fontSize=12;image=img/lib/azure2/app_services/App_Services.svg;" parent="1" vertex="1">
          <mxGeometry x="130" y="280" width="40" height="40" as="geometry" />
        </mxCell>
        <mxCell id="1ULK59Ztg3mBwUXZoHgi-34" value="App Service Plan" style="image;aspect=fixed;html=1;points=[];align=center;fontSize=12;image=img/lib/azure2/app_services/App_Service_Plans.svg;" parent="1" vertex="1">
          <mxGeometry x="210" y="350" width="30" height="30" as="geometry" />
        </mxCell>
        <mxCell id="1ULK59Ztg3mBwUXZoHgi-53" style="edgeStyle=orthogonalEdgeStyle;rounded=0;orthogonalLoop=1;jettySize=auto;html=1;exitX=0.25;exitY=0;exitDx=0;exitDy=0;entryX=0.25;entryY=1;entryDx=0;entryDy=0;" parent="1" source="1ULK59Ztg3mBwUXZoHgi-43" target="1ULK59Ztg3mBwUXZoHgi-28" edge="1">
          <mxGeometry relative="1" as="geometry" />
        </mxCell>
        <mxCell id="1ULK59Ztg3mBwUXZoHgi-54" value="API Response" style="edgeLabel;html=1;align=center;verticalAlign=middle;resizable=0;points=[];" parent="1ULK59Ztg3mBwUXZoHgi-53" vertex="1" connectable="0">
          <mxGeometry x="-0.1765" y="-1" relative="1" as="geometry">
            <mxPoint x="1" as="offset" />
          </mxGeometry>
        </mxCell>
        <mxCell id="1ULK59Ztg3mBwUXZoHgi-43" value="" style="rounded=0;whiteSpace=wrap;html=1;" parent="1" vertex="1">
          <mxGeometry x="445" y="460" width="230" height="160" as="geometry" />
        </mxCell>
        <mxCell id="1ULK59Ztg3mBwUXZoHgi-42" value="API Management Service" style="image;aspect=fixed;html=1;points=[];align=center;fontSize=12;image=img/lib/azure2/app_services/API_Management_Services.svg;" parent="1" vertex="1">
          <mxGeometry x="625" y="578.46" width="45" height="41.54" as="geometry" />
        </mxCell>
        <mxCell id="1ULK59Ztg3mBwUXZoHgi-46" style="edgeStyle=orthogonalEdgeStyle;rounded=0;orthogonalLoop=1;jettySize=auto;html=1;entryX=0.5;entryY=0;entryDx=0;entryDy=0;" parent="1" edge="1">
          <mxGeometry relative="1" as="geometry">
            <mxPoint x="585" y="380" as="sourcePoint" />
            <mxPoint x="580" y="460" as="targetPoint" />
            <Array as="points">
              <mxPoint x="585" y="381" />
              <mxPoint x="580" y="381" />
              <mxPoint x="580" y="421" />
              <mxPoint x="581" y="421" />
            </Array>
          </mxGeometry>
        </mxCell>
        <mxCell id="1ULK59Ztg3mBwUXZoHgi-47" value="API Requests" style="edgeLabel;html=1;align=center;verticalAlign=middle;resizable=0;points=[];" parent="1ULK59Ztg3mBwUXZoHgi-46" vertex="1" connectable="0">
          <mxGeometry x="-0.2069" y="-3" relative="1" as="geometry">
            <mxPoint x="-2" y="6" as="offset" />
          </mxGeometry>
        </mxCell>
        <mxCell id="1ULK59Ztg3mBwUXZoHgi-55" value="Parker Directory APIs" style="aspect=fixed;sketch=0;html=1;dashed=0;whitespace=wrap;verticalLabelPosition=bottom;verticalAlign=top;fillColor=#2875E2;strokeColor=#ffffff;points=[[0.005,0.63,0],[0.1,0.2,0],[0.9,0.2,0],[0.5,0,0],[0.995,0.63,0],[0.72,0.99,0],[0.5,1,0],[0.28,0.99,0]];shape=mxgraph.kubernetes.icon2;prIcon=api" parent="1" vertex="1">
          <mxGeometry x="484" y="480" width="50" height="48" as="geometry" />
        </mxCell>
        <mxCell id="1ULK59Ztg3mBwUXZoHgi-57" value="Common APIs&lt;div&gt;Header Footer&lt;/div&gt;" style="aspect=fixed;sketch=0;html=1;dashed=0;whitespace=wrap;verticalLabelPosition=bottom;verticalAlign=top;fillColor=#2875E2;strokeColor=#ffffff;points=[[0.005,0.63,0],[0.1,0.2,0],[0.9,0.2,0],[0.5,0,0],[0.995,0.63,0],[0.72,0.99,0],[0.5,1,0],[0.28,0.99,0]];shape=mxgraph.kubernetes.icon2;prIcon=api" parent="1" vertex="1">
          <mxGeometry x="590" y="480" width="50" height="48" as="geometry" />
        </mxCell>
        <mxCell id="1ULK59Ztg3mBwUXZoHgi-62" value="" style="endArrow=classic;startArrow=classic;html=1;rounded=0;entryX=0.43;entryY=1;entryDx=0;entryDy=0;entryPerimeter=0;" parent="1" source="1ULK59Ztg3mBwUXZoHgi-17" target="1ULK59Ztg3mBwUXZoHgi-43" edge="1">
          <mxGeometry width="50" height="50" relative="1" as="geometry">
            <mxPoint x="500" y="730" as="sourcePoint" />
            <mxPoint x="550" y="680" as="targetPoint" />
          </mxGeometry>
        </mxCell>
        <mxCell id="1ULK59Ztg3mBwUXZoHgi-63" value="Data Read And Write operations" style="edgeLabel;html=1;align=center;verticalAlign=middle;resizable=0;points=[];" parent="1ULK59Ztg3mBwUXZoHgi-62" vertex="1" connectable="0">
          <mxGeometry x="-0.0262" y="2" relative="1" as="geometry">
            <mxPoint as="offset" />
          </mxGeometry>
        </mxCell>
        <mxCell id="1ULK59Ztg3mBwUXZoHgi-64" value="&lt;b&gt;Identity Service Provider (Okta)&lt;/b&gt;" style="rounded=1;whiteSpace=wrap;html=1;" parent="1" vertex="1">
          <mxGeometry x="92" y="500" width="180" height="96" as="geometry" />
        </mxCell>
        <mxCell id="1ULK59Ztg3mBwUXZoHgi-67" style="edgeStyle=orthogonalEdgeStyle;rounded=0;orthogonalLoop=1;jettySize=auto;html=1;entryX=0.217;entryY=1.023;entryDx=0;entryDy=0;entryPerimeter=0;exitX=0.267;exitY=0;exitDx=0;exitDy=0;exitPerimeter=0;" parent="1" source="1ULK59Ztg3mBwUXZoHgi-64" edge="1">
          <mxGeometry relative="1" as="geometry">
            <mxPoint x="150" y="497" as="sourcePoint" />
            <mxPoint x="129.05999999999995" y="381.0129999999999" as="targetPoint" />
            <Array as="points">
              <mxPoint x="130" y="500" />
              <mxPoint x="130" y="437" />
            </Array>
          </mxGeometry>
        </mxCell>
        <mxCell id="1ULK59Ztg3mBwUXZoHgi-69" value="" style="endArrow=classic;html=1;rounded=0;entryX=0.667;entryY=0.104;entryDx=0;entryDy=0;entryPerimeter=0;" parent="1" edge="1">
          <mxGeometry width="50" height="50" relative="1" as="geometry">
            <mxPoint x="210" y="380" as="sourcePoint" />
            <mxPoint x="212.05999999999995" y="501.9839999999999" as="targetPoint" />
          </mxGeometry>
        </mxCell>
        <mxCell id="1ULK59Ztg3mBwUXZoHgi-73" value="" style="rounded=0;whiteSpace=wrap;html=1;" parent="1" vertex="1">
          <mxGeometry x="100" y="660" width="260" height="120" as="geometry" />
        </mxCell>
        <mxCell id="1ULK59Ztg3mBwUXZoHgi-70" value="Azure Monitor" style="image;aspect=fixed;html=1;points=[];align=center;fontSize=12;image=img/lib/azure2/management_governance/Monitor.svg;" parent="1" vertex="1">
          <mxGeometry x="118" y="670" width="64" height="64" as="geometry" />
        </mxCell>
        <mxCell id="1ULK59Ztg3mBwUXZoHgi-72" value="App Insights&lt;div&gt;&lt;b&gt;APIMProd&lt;/b&gt;&lt;/div&gt;" style="image;aspect=fixed;html=1;points=[];align=center;fontSize=12;image=img/lib/azure2/management_governance/Application_Insights.svg;" parent="1" vertex="1">
          <mxGeometry x="280" y="670" width="44" height="63" as="geometry" />
        </mxCell>
        <mxCell id="1ULK59Ztg3mBwUXZoHgi-74" value="&lt;b&gt;Monitoring Solution&lt;/b&gt;" style="text;html=1;align=center;verticalAlign=middle;whiteSpace=wrap;rounded=0;" parent="1" vertex="1">
          <mxGeometry x="152" y="780" width="158" height="30" as="geometry" />
        </mxCell>
        <mxCell id="1ULK59Ztg3mBwUXZoHgi-77" value="Other Application APIs" style="aspect=fixed;sketch=0;html=1;dashed=0;whitespace=wrap;verticalLabelPosition=bottom;verticalAlign=top;fillColor=#2875E2;strokeColor=#ffffff;points=[[0.005,0.63,0],[0.1,0.2,0],[0.9,0.2,0],[0.5,0,0],[0.995,0.63,0],[0.72,0.99,0],[0.5,1,0],[0.28,0.99,0]];shape=mxgraph.kubernetes.icon2;prIcon=api" parent="1" vertex="1">
          <mxGeometry x="490" y="548" width="50" height="48" as="geometry" />
        </mxCell>
        <mxCell id="1ULK59Ztg3mBwUXZoHgi-80" value="" style="endArrow=classic;html=1;rounded=0;entryX=0.788;entryY=0.008;entryDx=0;entryDy=0;entryPerimeter=0;" parent="1" edge="1">
          <mxGeometry width="50" height="50" relative="1" as="geometry">
            <mxPoint x="445" y="540" as="sourcePoint" />
            <mxPoint x="299.8800000000001" y="660.96" as="targetPoint" />
            <Array as="points">
              <mxPoint x="300" y="540" />
            </Array>
          </mxGeometry>
        </mxCell>
        <mxCell id="1ULK59Ztg3mBwUXZoHgi-84" value="" style="endArrow=classic;html=1;rounded=0;entryX=1;entryY=0.469;entryDx=0;entryDy=0;entryPerimeter=0;exitX=0;exitY=0.46;exitDx=0;exitDy=0;exitPerimeter=0;" parent="1" source="1ULK59Ztg3mBwUXZoHgi-72" target="1ULK59Ztg3mBwUXZoHgi-70" edge="1">
          <mxGeometry width="50" height="50" relative="1" as="geometry">
            <mxPoint x="340" y="590" as="sourcePoint" />
            <mxPoint x="390" y="540" as="targetPoint" />
          </mxGeometry>
        </mxCell>
        <mxCell id="Ctwnj4u9nsnr0cf7EvRS-1" value="&lt;b&gt;&lt;font style=&quot;font-size: 17px;&quot;&gt;Parker Directory - High Level Architecture&lt;/font&gt;&lt;/b&gt;" style="text;html=1;align=center;verticalAlign=middle;whiteSpace=wrap;rounded=0;" vertex="1" parent="1">
          <mxGeometry x="150" y="900" width="530" height="30" as="geometry" />
        </mxCell>
      </root>
    </mxGraphModel>
  </diagram>
</mxfile>
